<?xml version="1.0" encoding="UTF-8" standalone="no"?>
<!DOCTYPE svg PUBLIC "-//W3C//DTD SVG 1.1//EN"
 "http://www.w3.org/Graphics/SVG/1.1/DTD/svg11.dtd">
<!-- Generated by graphviz version 2.43.0 (0)
 -->
<!-- Title: Validation_diagram Pages: 1 -->
<svg width="1250pt" height="556pt"
 viewBox="0.00 0.00 1250.00 556.00" xmlns="http://www.w3.org/2000/svg" xmlns:xlink="http://www.w3.org/1999/xlink">
<g id="graph0" class="graph" transform="scale(1 1) rotate(0) translate(4 552)">
<title>Validation_diagram</title>
<polygon fill="white" stroke="transparent" points="-4,4 -4,-552 1246,-552 1246,4 -4,4"/>
<g id="clust1" class="cluster">
<title>cluster_wp4</title>
<polygon fill="none" stroke="black" points="177,-44 177,-349 729,-349 729,-44 177,-44"/>
<text text-anchor="middle" x="453" y="-333.8" font-family="Times,serif" font-size="14.00">CodeBlue WP4 Github</text>
</g>
<g id="clust2" class="cluster">
<title>cluster_scripts</title>
<polygon fill="none" stroke="black" points="185,-243 185,-318 721,-318 721,-243 185,-243"/>
<text text-anchor="middle" x="453" y="-302.8" font-family="Times,serif" font-size="14.00">Scripts</text>
</g>
<g id="clust3" class="cluster">
<title>cluster_lists</title>
<polygon fill="none" stroke="black" points="278,-52 278,-235 401,-235 401,-52 278,-52"/>
<text text-anchor="middle" x="339.5" y="-219.8" font-family="Times,serif" font-size="14.00">Lists</text>
</g>
<g id="clust4" class="cluster">
<title>cluster_shared</title>
<polygon fill="none" stroke="black" points="737,-127 737,-540 1234,-540 1234,-127 737,-127"/>
<text text-anchor="middle" x="985.5" y="-524.8" font-family="Times,serif" font-size="14.00">Code Blue shared space</text>
</g>
<g id="clust5" class="cluster">
<title>cluster_icesfolder</title>
<polygon fill="none" stroke="black" points="855.5,-434 855.5,-509 1115.5,-509 1115.5,-434 855.5,-434"/>
<text text-anchor="middle" x="985.5" y="-493.8" font-family="Times,serif" font-size="14.00">Formatted ICES In&#45;situ data</text>
</g>
<g id="clust6" class="cluster">
<title>cluster_CBF</title>
<polygon fill="none" stroke="black" points="745,-135 745,-426 1226,-426 1226,-135 745,-135"/>
<text text-anchor="middle" x="985.5" y="-410.8" font-family="Times,serif" font-size="14.00">Code Blue Files</text>
</g>
<g id="clust7" class="cluster">
<title>cluster_partner</title>
<polygon fill="none" stroke="black" points="8,-243 8,-318 165,-318 165,-243 8,-243"/>
<text text-anchor="middle" x="86.5" y="-302.8" font-family="Times,serif" font-size="14.00">Code Blue partner</text>
</g>
<!-- SCR_G -->
<g id="node1" class="node">
<title>SCR_G</title>
<polygon fill="none" stroke="black" points="713,-287 710,-291 689,-291 686,-287 522,-287 522,-251 713,-251 713,-287"/>
<text text-anchor="middle" x="617.5" y="-265.3" font-family="Times,serif" font-size="14.00">Generic scripts (Python)</text>
</g>
<!-- INDICATORS -->
<g id="node7" class="node">
<title>INDICATORS</title>
<polygon fill="none" stroke="black" points="1150,-395 815,-395 815,-359 1156,-359 1156,-389 1150,-395"/>
<polyline fill="none" stroke="black" points="1150,-395 1150,-389 "/>
<polyline fill="none" stroke="black" points="1156,-389 1150,-389 "/>
<text text-anchor="middle" x="985.5" y="-373.3" font-family="Times,serif" font-size="14.00">IND_&lt;SCENARIO&gt;_&lt;YEAR&gt;_&lt;MODEL&gt;.csv</text>
</g>
<!-- SCR_G&#45;&gt;INDICATORS -->
<g id="edge3" class="edge">
<title>SCR_G&#45;&gt;INDICATORS</title>
<path fill="none" stroke="black" d="M677.98,-318C695.95,-330.42 716.41,-342.39 737,-350 758.46,-357.93 781.63,-363.74 804.88,-367.96"/>
<polygon fill="black" stroke="black" points="804.4,-371.43 814.85,-369.68 805.59,-364.53 804.4,-371.43"/>
</g>
<!-- MONTHLY -->
<g id="node8" class="node">
<title>MONTHLY</title>
<path fill="none" stroke="black" d="M1176,-337.73C1176,-339.53 1090.61,-341 985.5,-341 880.39,-341 795,-339.53 795,-337.73 795,-337.73 795,-308.27 795,-308.27 795,-306.47 880.39,-305 985.5,-305 1090.61,-305 1176,-306.47 1176,-308.27 1176,-308.27 1176,-337.73 1176,-337.73"/>
<path fill="none" stroke="black" d="M1176,-337.73C1176,-335.92 1090.61,-334.45 985.5,-334.45 880.39,-334.45 795,-335.92 795,-337.73"/>
<text text-anchor="middle" x="985.5" y="-319.3" font-family="Times,serif" font-size="14.00">MONTHLY_&lt;SCENARIO&gt;_&lt;YEAR&gt;_&lt;MODEL&gt;.nc</text>
</g>
<!-- SCR_G&#45;&gt;MONTHLY -->
<g id="edge4" class="edge">
<title>SCR_G&#45;&gt;MONTHLY</title>
<path fill="none" stroke="black" d="M721,-293.12C726.4,-294.15 731.76,-295.12 737,-296 756.6,-299.29 777.14,-302.27 797.65,-304.94"/>
<polygon fill="black" stroke="black" points="797.36,-308.43 807.72,-306.23 798.24,-301.49 797.36,-308.43"/>
</g>
<!-- DAILY -->
<g id="node9" class="node">
<title>DAILY</title>
<path fill="none" stroke="black" d="M1160,-283.73C1160,-285.53 1081.79,-287 985.5,-287 889.21,-287 811,-285.53 811,-283.73 811,-283.73 811,-254.27 811,-254.27 811,-252.47 889.21,-251 985.5,-251 1081.79,-251 1160,-252.47 1160,-254.27 1160,-254.27 1160,-283.73 1160,-283.73"/>
<path fill="none" stroke="black" d="M1160,-283.73C1160,-281.92 1081.79,-280.45 985.5,-280.45 889.21,-280.45 811,-281.92 811,-283.73"/>
<text text-anchor="middle" x="985.5" y="-265.3" font-family="Times,serif" font-size="14.00">DAILY_&lt;SCENARIO&gt;_&lt;YEAR&gt;_&lt;MODEL&gt;.nc</text>
</g>
<!-- SCR_G&#45;&gt;DAILY -->
<g id="edge5" class="edge">
<title>SCR_G&#45;&gt;DAILY</title>
<path fill="none" stroke="black" d="M721,-269C745.82,-269 773.1,-269 800.42,-269"/>
<polygon fill="black" stroke="black" points="800.66,-272.5 810.66,-269 800.66,-265.5 800.66,-272.5"/>
</g>
<!-- VALID -->
<g id="node10" class="node">
<title>VALID</title>
<polygon fill="none" stroke="black" points="1138.5,-233 832.5,-233 832.5,-229 828.5,-229 828.5,-225 832.5,-225 832.5,-205 828.5,-205 828.5,-201 832.5,-201 832.5,-197 1138.5,-197 1138.5,-233"/>
<polyline fill="none" stroke="black" points="832.5,-229 836.5,-229 836.5,-225 832.5,-225 "/>
<polyline fill="none" stroke="black" points="832.5,-205 836.5,-205 836.5,-201 832.5,-201 "/>
<text text-anchor="middle" x="985.5" y="-211.3" font-family="Times,serif" font-size="14.00">VALID_&lt;VAR&gt;_&lt;YEAR&gt;_&lt;MODEL&gt;.csv</text>
</g>
<!-- SCR_G&#45;&gt;VALID -->
<g id="edge6" class="edge">
<title>SCR_G&#45;&gt;VALID</title>
<path fill="none" stroke="black" d="M721,-244.88C726.4,-243.85 731.76,-242.88 737,-242 764.45,-237.39 793.76,-233.39 822.25,-229.99"/>
<polygon fill="black" stroke="black" points="822.76,-233.45 832.29,-228.81 821.95,-226.5 822.76,-233.45"/>
</g>
<!-- STATION -->
<g id="node11" class="node">
<title>STATION</title>
<path fill="none" stroke="black" d="M1218,-175.73C1218,-177.53 1113.79,-179 985.5,-179 857.21,-179 753,-177.53 753,-175.73 753,-175.73 753,-146.27 753,-146.27 753,-144.47 857.21,-143 985.5,-143 1113.79,-143 1218,-144.47 1218,-146.27 1218,-146.27 1218,-175.73 1218,-175.73"/>
<path fill="none" stroke="black" d="M1218,-175.73C1218,-173.92 1113.79,-172.45 985.5,-172.45 857.21,-172.45 753,-173.92 753,-175.73"/>
<text text-anchor="middle" x="985.5" y="-157.3" font-family="Times,serif" font-size="14.00">STATION_&lt;STATION&gt;_&lt;SCENARIO&gt;_&lt;YEAR&gt;_&lt;MODEL&gt;.nc</text>
</g>
<!-- SCR_G&#45;&gt;STATION -->
<g id="edge7" class="edge">
<title>SCR_G&#45;&gt;STATION</title>
<path fill="none" stroke="black" d="M647.61,-243C670.29,-224.35 703.46,-200.4 737,-188 744.41,-185.26 752.03,-182.77 759.78,-180.52"/>
<polygon fill="black" stroke="black" points="760.96,-183.82 769.67,-177.78 759.09,-177.08 760.96,-183.82"/>
</g>
<!-- SCR_S -->
<g id="node2" class="node">
<title>SCR_S</title>
<polygon fill="none" stroke="black" points="486,-287 483,-291 462,-291 459,-287 193,-287 193,-251 486,-251 486,-287"/>
<text text-anchor="middle" x="339.5" y="-265.3" font-family="Times,serif" font-size="14.00">Model&#45;specific namesheets (Yaml/Json)</text>
</g>
<!-- SCR_S&#45;&gt;SCR_G -->
<g id="edge9" class="edge">
<title>SCR_S&#45;&gt;SCR_G</title>
<path fill="none" stroke="black" d="M486.18,-269C494.75,-269 503.27,-269 511.63,-269"/>
<polygon fill="black" stroke="black" points="511.73,-272.5 521.73,-269 511.73,-265.5 511.73,-272.5"/>
</g>
<!-- list_station -->
<g id="node3" class="node">
<title>list_station</title>
<polygon fill="none" stroke="black" points="381.5,-204 291.5,-204 291.5,-168 387.5,-168 387.5,-198 381.5,-204"/>
<polyline fill="none" stroke="black" points="381.5,-204 381.5,-198 "/>
<polyline fill="none" stroke="black" points="387.5,-198 381.5,-198 "/>
<text text-anchor="middle" x="339.5" y="-182.3" font-family="Times,serif" font-size="14.00">Station.csv</text>
</g>
<!-- list_station&#45;&gt;SCR_G -->
<g id="edge8" class="edge">
<title>list_station&#45;&gt;SCR_G</title>
<path fill="none" stroke="black" d="M401,-204.19C435.92,-214.69 480.64,-228.14 520.28,-240.06"/>
<polygon fill="black" stroke="black" points="519.47,-243.47 530.05,-243 521.48,-236.77 519.47,-243.47"/>
</g>
<!-- WEB -->
<g id="node13" class="node">
<title>WEB</title>
<polygon fill="none" stroke="black" points="675,-36 672,-40 651,-40 648,-36 560,-36 560,0 675,0 675,-36"/>
<text text-anchor="middle" x="617.5" y="-14.3" font-family="Times,serif" font-size="14.00">This webpage</text>
</g>
<!-- list_station&#45;&gt;WEB -->
<g id="edge2" class="edge">
<title>list_station&#45;&gt;WEB</title>
<path fill="none" stroke="black" d="M401,-183.4C428.33,-180.12 460.2,-173.22 486,-159 536.2,-131.33 577.81,-77.27 599.74,-44.72"/>
<polygon fill="black" stroke="black" points="602.81,-46.43 605.39,-36.15 596.96,-42.57 602.81,-46.43"/>
</g>
<!-- list_indicators -->
<g id="node4" class="node">
<title>list_indicators</title>
<polygon fill="none" stroke="black" points="387,-150 286,-150 286,-114 393,-114 393,-144 387,-150"/>
<polyline fill="none" stroke="black" points="387,-150 387,-144 "/>
<polyline fill="none" stroke="black" points="393,-144 387,-144 "/>
<text text-anchor="middle" x="339.5" y="-128.3" font-family="Times,serif" font-size="14.00">Indicator.csv</text>
</g>
<!-- list_others -->
<g id="node5" class="node">
<title>list_others</title>
<text text-anchor="middle" x="339.5" y="-74.3" font-family="Times,serif" font-size="14.00"> ... </text>
</g>
<!-- STRUCT -->
<g id="node6" class="node">
<title>STRUCT</title>
<polygon fill="none" stroke="black" points="1107.5,-478 863.5,-478 863.5,-474 859.5,-474 859.5,-470 863.5,-470 863.5,-450 859.5,-450 859.5,-446 863.5,-446 863.5,-442 1107.5,-442 1107.5,-478"/>
<polyline fill="none" stroke="black" points="863.5,-474 867.5,-474 867.5,-470 863.5,-470 "/>
<polyline fill="none" stroke="black" points="863.5,-450 867.5,-450 867.5,-446 863.5,-446 "/>
<text text-anchor="middle" x="985.5" y="-456.3" font-family="Times,serif" font-size="14.00">ICES_&lt;VAR&gt;_&lt;YEAR&gt;.parquet</text>
</g>
<!-- SIM -->
<g id="node12" class="node">
<title>SIM</title>
<path fill="none" stroke="black" d="M157,-283.73C157,-285.53 125.4,-287 86.5,-287 47.6,-287 16,-285.53 16,-283.73 16,-283.73 16,-254.27 16,-254.27 16,-252.47 47.6,-251 86.5,-251 125.4,-251 157,-252.47 157,-254.27 157,-254.27 157,-283.73 157,-283.73"/>
<path fill="none" stroke="black" d="M157,-283.73C157,-281.92 125.4,-280.45 86.5,-280.45 47.6,-280.45 16,-281.92 16,-283.73"/>
<text text-anchor="middle" x="86.5" y="-265.3" font-family="Times,serif" font-size="14.00">1 year simulation</text>
</g>
<!-- SIM&#45;&gt;SCR_S -->
<g id="edge1" class="edge">
<title>SIM&#45;&gt;SCR_S</title>
<path fill="none" stroke="black" d="M157.08,-269C165.31,-269 173.93,-269 182.77,-269"/>
<polygon fill="black" stroke="black" points="175,-272.5 185,-269 175,-265.5 175,-272.5"/>
</g>
</g>
</svg>
