<?xml version="1.0" encoding="UTF-8" standalone="no"?>
<!DOCTYPE svg PUBLIC "-//W3C//DTD SVG 1.1//EN"
 "http://www.w3.org/Graphics/SVG/1.1/DTD/svg11.dtd">
<!-- Generated by graphviz version 14.1.2 (20260126.1125)
 -->
<!-- Title: Validation_diagram Pages: 1 -->
<svg width="910pt" height="227pt"
 viewBox="0.00 0.00 910.00 227.00" xmlns="http://www.w3.org/2000/svg" xmlns:xlink="http://www.w3.org/1999/xlink">
<g id="graph0" class="graph" transform="scale(1 1) rotate(0) translate(4 223)">
<title>Validation_diagram</title>
<polygon fill="white" stroke="none" points="-4,4 -4,-223 905.55,-223 905.55,4 -4,4"/>
<g id="clust1" class="cluster">
<title>cluster_ices</title>
<polygon fill="none" stroke="black" points="26.25,-116 26.25,-193 147.25,-193 147.25,-116 26.25,-116"/>
<text xml:space="preserve" text-anchor="middle" x="86.75" y="-175.7" font-family="Times,serif" font-size="14.00">ICES database</text>
</g>
<g id="clust2" class="cluster">
<title>cluster_wp4</title>
<polygon fill="none" stroke="black" points="176.5,-39 176.5,-211 515.05,-211 515.05,-39 176.5,-39"/>
<text xml:space="preserve" text-anchor="middle" x="345.77" y="-193.7" font-family="Times,serif" font-size="14.00">CodeBlue WP4 Github</text>
</g>
<g id="clust3" class="cluster">
<title>cluster_scripts</title>
<polygon fill="none" stroke="black" points="184.5,-47 184.5,-178 507.05,-178 507.05,-47 184.5,-47"/>
<text xml:space="preserve" text-anchor="middle" x="345.77" y="-160.7" font-family="Times,serif" font-size="14.00">scr/validation/</text>
</g>
<g id="clust4" class="cluster">
<title>cluster_shared</title>
<polygon fill="none" stroke="black" points="523.05,-8 523.05,-211 893.55,-211 893.55,-8 523.05,-8"/>
<text xml:space="preserve" text-anchor="middle" x="708.3" y="-193.7" font-family="Times,serif" font-size="14.00">CodeBlue shared space</text>
</g>
<g id="clust5" class="cluster">
<title>cluster_icesfolder</title>
<polygon fill="none" stroke="black" points="599.92,-101 599.92,-178 817.67,-178 817.67,-101 599.92,-101"/>
<text xml:space="preserve" text-anchor="middle" x="708.8" y="-160.7" font-family="Times,serif" font-size="14.00">Formatted ICES In&#45;situ data</text>
</g>
<g id="clust6" class="cluster">
<title>cluster_CBF</title>
<polygon fill="none" stroke="black" points="531.05,-16 531.05,-93 885.55,-93 885.55,-16 531.05,-16"/>
<text xml:space="preserve" text-anchor="middle" x="708.3" y="-75.7" font-family="Times,serif" font-size="14.00">CodeBlue Files</text>
</g>
<g id="clust7" class="cluster">
<title>cluster_partner</title>
<polygon fill="none" stroke="black" points="8,-31 8,-108 164.5,-108 164.5,-31 8,-31"/>
<text xml:space="preserve" text-anchor="middle" x="86.25" y="-90.7" font-family="Times,serif" font-size="14.00">CodeBlue partner</text>
</g>
<!-- ICES -->
<g id="node1" class="node">
<title>ICES</title>
<path fill="none" stroke="black" d="M136.25,-156.73C136.25,-158.53 113.84,-160 86.25,-160 58.66,-160 36.25,-158.53 36.25,-156.73 36.25,-156.73 36.25,-127.27 36.25,-127.27 36.25,-125.47 58.66,-124 86.25,-124 113.84,-124 136.25,-125.47 136.25,-127.27 136.25,-127.27 136.25,-156.73 136.25,-156.73"/>
<path fill="none" stroke="black" d="M136.25,-156.73C136.25,-154.92 113.84,-153.45 86.25,-153.45 58.66,-153.45 36.25,-154.92 36.25,-156.73"/>
<text xml:space="preserve" text-anchor="middle" x="86.25" y="-137.32" font-family="Times,serif" font-size="14.00">ICES InSitu</text>
</g>
<!-- PARQUET -->
<g id="node2" class="node">
<title>PARQUET</title>
<ellipse fill="none" stroke="black" cx="345.77" cy="-127" rx="126.44" ry="18"/>
<text xml:space="preserve" text-anchor="middle" x="345.77" y="-122.33" font-family="Times,serif" font-size="14.00">ICES_to_parquet.ipynb</text>
</g>
<!-- ICES&#45;&gt;PARQUET -->
<g id="edge1" class="edge">
<title>ICES&#45;&gt;PARQUET</title>
<path fill="none" stroke="black" d="M136.6,-139.13C159.55,-137.79 188.02,-136.13 216.46,-134.47"/>
<polygon fill="black" stroke="black" points="216.48,-137.98 226.26,-133.9 216.08,-130.99 216.48,-137.98"/>
</g>
<!-- STRUCT -->
<g id="node4" class="node">
<title>STRUCT</title>
<path fill="none" stroke="black" d="M808.55,-141.73C808.55,-143.53 763.61,-145 708.3,-145 652.98,-145 608.05,-143.53 608.05,-141.73 608.05,-141.73 608.05,-112.27 608.05,-112.27 608.05,-110.47 652.98,-109 708.3,-109 763.61,-109 808.55,-110.47 808.55,-112.27 808.55,-112.27 808.55,-141.73 808.55,-141.73"/>
<path fill="none" stroke="black" d="M808.55,-141.73C808.55,-139.92 763.61,-138.45 708.3,-138.45 652.98,-138.45 608.05,-139.92 608.05,-141.73"/>
<text xml:space="preserve" text-anchor="middle" x="708.3" y="-122.33" font-family="Times,serif" font-size="14.00">&lt;VAR&gt;_&lt;YEAR&gt;.parquet</text>
</g>
<!-- PARQUET&#45;&gt;STRUCT -->
<g id="edge2" class="edge">
<title>PARQUET&#45;&gt;STRUCT</title>
<path fill="none" stroke="black" d="M472.61,-127C512.92,-127 557.23,-127 596.39,-127"/>
<polygon fill="black" stroke="black" points="596.31,-130.5 606.31,-127 596.31,-123.5 596.31,-130.5"/>
</g>
<!-- EXTRACT -->
<g id="node3" class="node">
<title>EXTRACT</title>
<ellipse fill="none" stroke="black" cx="345.77" cy="-73" rx="153.27" ry="18"/>
<text xml:space="preserve" text-anchor="middle" x="345.77" y="-68.33" font-family="Times,serif" font-size="14.00">Extract_validation_tables.py</text>
</g>
<!-- CSV -->
<g id="node5" class="node">
<title>CSV</title>
<path fill="none" stroke="black" d="M877.55,-56.73C877.55,-58.53 801.69,-60 708.3,-60 614.91,-60 539.05,-58.53 539.05,-56.73 539.05,-56.73 539.05,-27.27 539.05,-27.27 539.05,-25.47 614.91,-24 708.3,-24 801.69,-24 877.55,-25.47 877.55,-27.27 877.55,-27.27 877.55,-56.73 877.55,-56.73"/>
<path fill="none" stroke="black" d="M877.55,-56.73C877.55,-54.92 801.69,-53.45 708.3,-53.45 614.91,-53.45 539.05,-54.92 539.05,-56.73"/>
<text xml:space="preserve" text-anchor="middle" x="708.3" y="-37.33" font-family="Times,serif" font-size="14.00">VALID_&lt;VAR&gt;_&lt;YEAR&gt;_&lt;MODEL&gt;.parquet</text>
</g>
<!-- EXTRACT&#45;&gt;CSV -->
<g id="edge5" class="edge">
<title>EXTRACT&#45;&gt;CSV</title>
<path fill="none" stroke="black" d="M471.1,-62.31C489.31,-60.74 508.37,-59.11 527.42,-57.47"/>
<polygon fill="black" stroke="black" points="527.46,-60.98 537.12,-56.63 526.86,-54 527.46,-60.98"/>
</g>
<!-- STRUCT&#45;&gt;EXTRACT -->
<g id="edge3" class="edge">
<title>STRUCT&#45;&gt;EXTRACT</title>
<path fill="none" stroke="black" d="M607.72,-112.08C559.86,-104.92 502.45,-96.32 453.67,-89.01"/>
<polygon fill="black" stroke="black" points="454.35,-85.57 443.94,-87.55 453.31,-92.5 454.35,-85.57"/>
</g>
<!-- SIM -->
<g id="node6" class="node">
<title>SIM</title>
<path fill="none" stroke="black" d="M156.5,-71.73C156.5,-73.53 125.01,-75 86.25,-75 47.49,-75 16,-73.53 16,-71.73 16,-71.73 16,-42.27 16,-42.27 16,-40.47 47.49,-39 86.25,-39 125.01,-39 156.5,-40.47 156.5,-42.27 156.5,-42.27 156.5,-71.73 156.5,-71.73"/>
<path fill="none" stroke="black" d="M156.5,-71.73C156.5,-69.92 125.01,-68.45 86.25,-68.45 47.49,-68.45 16,-69.92 16,-71.73"/>
<text xml:space="preserve" text-anchor="middle" x="86.25" y="-52.33" font-family="Times,serif" font-size="14.00">1 year simulation</text>
</g>
<!-- SIM&#45;&gt;EXTRACT -->
<g id="edge4" class="edge">
<title>SIM&#45;&gt;EXTRACT</title>
<path fill="none" stroke="black" d="M156.94,-61.33C169.75,-62.13 183.56,-62.98 197.67,-63.86"/>
<polygon fill="black" stroke="black" points="197.32,-67.35 207.52,-64.47 197.76,-60.36 197.32,-67.35"/>
</g>
</g>
</svg>
