<?xml version="1.0" encoding="UTF-8" standalone="no"?>
<!DOCTYPE svg PUBLIC "-//W3C//DTD SVG 1.1//EN"
 "http://www.w3.org/Graphics/SVG/1.1/DTD/svg11.dtd">
<!-- Generated by graphviz version 2.43.0 (0)
 -->
<!-- Title: Validation_diagram Pages: 1 -->
<svg width="790pt" height="193pt"
 viewBox="0.00 0.00 789.85 193.00" xmlns="http://www.w3.org/2000/svg" xmlns:xlink="http://www.w3.org/1999/xlink">
<g id="graph0" class="graph" transform="scale(1 1) rotate(0) translate(4 189)">
<title>Validation_diagram</title>
<polygon fill="white" stroke="transparent" points="-4,4 -4,-189 785.85,-189 785.85,4 -4,4"/>
<g id="clust1" class="cluster">
<title>cluster_ices</title>
<polygon fill="none" stroke="black" points="26,-91 26,-166 148,-166 148,-91 26,-91"/>
<text text-anchor="middle" x="87" y="-150.8" font-family="Times,serif" font-size="14.00">ICES database</text>
</g>
<g id="clust2" class="cluster">
<title>cluster_wp4</title>
<polygon fill="none" stroke="black" points="177,-9 177,-177 414.38,-177 414.38,-9 177,-9"/>
<text text-anchor="middle" x="295.69" y="-161.8" font-family="Times,serif" font-size="14.00">CodeBlue WP4 Github</text>
</g>
<g id="clust3" class="cluster">
<title>cluster_scripts</title>
<polygon fill="none" stroke="black" points="185,-17 185,-146 406.38,-146 406.38,-17 185,-17"/>
<text text-anchor="middle" x="295.69" y="-130.8" font-family="Times,serif" font-size="14.00">scr/validation/</text>
</g>
<g id="clust4" class="cluster">
<title>cluster_shared</title>
<polygon fill="none" stroke="black" points="426.38,-17 426.38,-146 773.85,-146 773.85,-17 426.38,-17"/>
<text text-anchor="middle" x="600.12" y="-130.8" font-family="Times,serif" font-size="14.00">Code Blue shared space</text>
</g>
<g id="clust5" class="cluster">
<title>cluster_partner</title>
<polygon fill="none" stroke="black" points="8,-8 8,-83 165,-83 165,-8 8,-8"/>
<text text-anchor="middle" x="86.5" y="-67.8" font-family="Times,serif" font-size="14.00">Code Blue partner</text>
</g>
<!-- ICES -->
<g id="node1" class="node">
<title>ICES</title>
<path fill="none" stroke="black" d="M137,-131.73C137,-133.53 114.37,-135 86.5,-135 58.63,-135 36,-133.53 36,-131.73 36,-131.73 36,-102.27 36,-102.27 36,-100.47 58.63,-99 86.5,-99 114.37,-99 137,-100.47 137,-102.27 137,-102.27 137,-131.73 137,-131.73"/>
<path fill="none" stroke="black" d="M137,-131.73C137,-129.92 114.37,-128.45 86.5,-128.45 58.63,-128.45 36,-129.92 36,-131.73"/>
<text text-anchor="middle" x="86.5" y="-113.3" font-family="Times,serif" font-size="14.00">ICES InSitu</text>
</g>
<!-- PARQUET -->
<g id="node2" class="node">
<title>PARQUET</title>
<ellipse fill="none" stroke="black" cx="295.69" cy="-97" rx="102.88" ry="18"/>
<text text-anchor="middle" x="295.69" y="-93.3" font-family="Times,serif" font-size="14.00">ICES_to_parquet.py</text>
</g>
<!-- ICES&#45;&gt;PARQUET -->
<g id="edge1" class="edge">
<title>ICES&#45;&gt;PARQUET</title>
<path fill="none" stroke="black" d="M137.13,-112.21C154.64,-110.52 175.01,-108.55 195.17,-106.61"/>
<polygon fill="black" stroke="black" points="195.74,-110.07 205.36,-105.62 195.07,-103.1 195.74,-110.07"/>
</g>
<!-- STRUCT -->
<g id="node4" class="node">
<title>STRUCT</title>
<ellipse fill="none" stroke="black" cx="600.12" cy="-97" rx="158.67" ry="18"/>
<text text-anchor="middle" x="600.12" y="-93.3" font-family="Times,serif" font-size="14.00">ICES_&lt;VAR&gt;_&lt;YEAR&gt;.parquet</text>
</g>
<!-- PARQUET&#45;&gt;STRUCT -->
<g id="edge2" class="edge">
<title>PARQUET&#45;&gt;STRUCT</title>
<path fill="none" stroke="black" d="M398.66,-97C409.23,-97 420.15,-97 431.2,-97"/>
<polygon fill="black" stroke="black" points="431.38,-100.5 441.38,-97 431.38,-93.5 431.38,-100.5"/>
</g>
<!-- EXTRACT -->
<g id="node3" class="node">
<title>EXTRACT</title>
<ellipse fill="none" stroke="black" cx="295.69" cy="-43" rx="85.59" ry="18"/>
<text text-anchor="middle" x="295.69" y="-39.3" font-family="Times,serif" font-size="14.00">ICES_extract.py</text>
</g>
<!-- CSV -->
<g id="node5" class="node">
<title>CSV</title>
<ellipse fill="none" stroke="black" cx="600.12" cy="-43" rx="165.97" ry="18"/>
<text text-anchor="middle" x="600.12" y="-39.3" font-family="Times,serif" font-size="14.00">&lt;VAR&gt;_&lt;YEAR&gt;_&lt;MODEL&gt;.csv</text>
</g>
<!-- EXTRACT&#45;&gt;CSV -->
<g id="edge5" class="edge">
<title>EXTRACT&#45;&gt;CSV</title>
<path fill="none" stroke="black" d="M381.74,-43C395.15,-43 409.43,-43 424.02,-43"/>
<polygon fill="black" stroke="black" points="424.15,-46.5 434.15,-43 424.15,-39.5 424.15,-46.5"/>
</g>
<!-- STRUCT&#45;&gt;EXTRACT -->
<g id="edge3" class="edge">
<title>STRUCT&#45;&gt;EXTRACT</title>
<path fill="none" stroke="black" d="M502.59,-82.79C477.71,-78.89 451.02,-74.49 426.38,-70 406.54,-66.39 385.08,-62.08 365.43,-57.98"/>
<polygon fill="black" stroke="black" points="366.15,-54.56 355.64,-55.92 364.71,-61.41 366.15,-54.56"/>
</g>
<!-- SIM -->
<g id="node6" class="node">
<title>SIM</title>
<path fill="none" stroke="black" d="M157,-48.73C157,-50.53 125.4,-52 86.5,-52 47.6,-52 16,-50.53 16,-48.73 16,-48.73 16,-19.27 16,-19.27 16,-17.47 47.6,-16 86.5,-16 125.4,-16 157,-17.47 157,-19.27 157,-19.27 157,-48.73 157,-48.73"/>
<path fill="none" stroke="black" d="M157,-48.73C157,-46.92 125.4,-45.45 86.5,-45.45 47.6,-45.45 16,-46.92 16,-48.73"/>
<text text-anchor="middle" x="86.5" y="-30.3" font-family="Times,serif" font-size="14.00">1 year simulation</text>
</g>
<!-- SIM&#45;&gt;EXTRACT -->
<g id="edge4" class="edge">
<title>SIM&#45;&gt;EXTRACT</title>
<path fill="none" stroke="black" d="M157.07,-37.02C171.2,-37.64 186.29,-38.29 201.1,-38.93"/>
<polygon fill="black" stroke="black" points="201.16,-42.44 211.3,-39.38 201.46,-35.45 201.16,-42.44"/>
</g>
</g>
</svg>
