<?xml version="1.0" encoding="UTF-8" standalone="no"?>
<!DOCTYPE svg PUBLIC "-//W3C//DTD SVG 1.1//EN"
 "http://www.w3.org/Graphics/SVG/1.1/DTD/svg11.dtd">
<!-- Generated by graphviz version 2.43.0 (0)
 -->
<!-- Title: Validation_diagram Pages: 1 -->
<svg width="776pt" height="221pt"
 viewBox="0.00 0.00 776.38 221.00" xmlns="http://www.w3.org/2000/svg" xmlns:xlink="http://www.w3.org/1999/xlink">
<g id="graph0" class="graph" transform="scale(1 1) rotate(0) translate(4 217)">
<title>Validation_diagram</title>
<polygon fill="white" stroke="transparent" points="-4,4 -4,-217 772.38,-217 772.38,4 -4,4"/>
<g id="clust1" class="cluster">
<title>cluster_ices</title>
<polygon fill="none" stroke="black" points="26,-113 26,-188 148,-188 148,-113 26,-113"/>
<text text-anchor="middle" x="87" y="-172.8" font-family="Times,serif" font-size="14.00">ICES database</text>
</g>
<g id="clust2" class="cluster">
<title>cluster_wp4</title>
<polygon fill="none" stroke="black" points="177,-37 177,-205 414.38,-205 414.38,-37 177,-37"/>
<text text-anchor="middle" x="295.69" y="-189.8" font-family="Times,serif" font-size="14.00">CodeBlue WP4 Github</text>
</g>
<g id="clust3" class="cluster">
<title>cluster_scripts</title>
<polygon fill="none" stroke="black" points="185,-45 185,-174 406.38,-174 406.38,-45 185,-45"/>
<text text-anchor="middle" x="295.69" y="-158.8" font-family="Times,serif" font-size="14.00">scr/validation/</text>
</g>
<g id="clust4" class="cluster">
<title>cluster_shared</title>
<polygon fill="none" stroke="black" points="422.38,-8 422.38,-205 760.38,-205 760.38,-8 422.38,-8"/>
<text text-anchor="middle" x="591.38" y="-189.8" font-family="Times,serif" font-size="14.00">Code Blue shared space</text>
</g>
<g id="clust5" class="cluster">
<title>cluster_icesfolder</title>
<polygon fill="none" stroke="black" points="461.38,-99 461.38,-174 721.38,-174 721.38,-99 461.38,-99"/>
<text text-anchor="middle" x="591.38" y="-158.8" font-family="Times,serif" font-size="14.00">Formatted ICES In&#45;situ data</text>
</g>
<g id="clust6" class="cluster">
<title>cluster_CBF</title>
<polygon fill="none" stroke="black" points="430.38,-16 430.38,-91 752.38,-91 752.38,-16 430.38,-16"/>
<text text-anchor="middle" x="591.38" y="-75.8" font-family="Times,serif" font-size="14.00">Code Blue Files</text>
</g>
<g id="clust7" class="cluster">
<title>cluster_partner</title>
<polygon fill="none" stroke="black" points="8,-30 8,-105 165,-105 165,-30 8,-30"/>
<text text-anchor="middle" x="86.5" y="-89.8" font-family="Times,serif" font-size="14.00">Code Blue partner</text>
</g>
<!-- ICES -->
<g id="node1" class="node">
<title>ICES</title>
<path fill="none" stroke="black" d="M137,-153.73C137,-155.53 114.37,-157 86.5,-157 58.63,-157 36,-155.53 36,-153.73 36,-153.73 36,-124.27 36,-124.27 36,-122.47 58.63,-121 86.5,-121 114.37,-121 137,-122.47 137,-124.27 137,-124.27 137,-153.73 137,-153.73"/>
<path fill="none" stroke="black" d="M137,-153.73C137,-151.92 114.37,-150.45 86.5,-150.45 58.63,-150.45 36,-151.92 36,-153.73"/>
<text text-anchor="middle" x="86.5" y="-135.3" font-family="Times,serif" font-size="14.00">ICES InSitu</text>
</g>
<!-- PARQUET -->
<g id="node2" class="node">
<title>PARQUET</title>
<ellipse fill="none" stroke="black" cx="295.69" cy="-125" rx="102.88" ry="18"/>
<text text-anchor="middle" x="295.69" y="-121.3" font-family="Times,serif" font-size="14.00">ICES_to_parquet.py</text>
</g>
<!-- ICES&#45;&gt;PARQUET -->
<g id="edge1" class="edge">
<title>ICES&#45;&gt;PARQUET</title>
<path fill="none" stroke="black" d="M137.13,-135.65C152.99,-134.58 171.19,-133.35 189.45,-132.11"/>
<polygon fill="black" stroke="black" points="189.85,-135.59 199.6,-131.43 189.38,-128.61 189.85,-135.59"/>
</g>
<!-- STRUCT -->
<g id="node4" class="node">
<title>STRUCT</title>
<path fill="none" stroke="black" d="M713.38,-139.73C713.38,-141.53 658.7,-143 591.38,-143 524.06,-143 469.38,-141.53 469.38,-139.73 469.38,-139.73 469.38,-110.27 469.38,-110.27 469.38,-108.47 524.06,-107 591.38,-107 658.7,-107 713.38,-108.47 713.38,-110.27 713.38,-110.27 713.38,-139.73 713.38,-139.73"/>
<path fill="none" stroke="black" d="M713.38,-139.73C713.38,-137.92 658.7,-136.45 591.38,-136.45 524.06,-136.45 469.38,-137.92 469.38,-139.73"/>
<text text-anchor="middle" x="591.38" y="-121.3" font-family="Times,serif" font-size="14.00">ICES_&lt;VAR&gt;_&lt;YEAR&gt;.parquet</text>
</g>
<!-- PARQUET&#45;&gt;STRUCT -->
<g id="edge2" class="edge">
<title>PARQUET&#45;&gt;STRUCT</title>
<path fill="none" stroke="black" d="M398.59,-125C418.07,-125 438.73,-125 458.99,-125"/>
<polygon fill="black" stroke="black" points="459.22,-128.5 469.22,-125 459.22,-121.5 459.22,-128.5"/>
</g>
<!-- EXTRACT -->
<g id="node3" class="node">
<title>EXTRACT</title>
<ellipse fill="none" stroke="black" cx="295.69" cy="-71" rx="85.59" ry="18"/>
<text text-anchor="middle" x="295.69" y="-67.3" font-family="Times,serif" font-size="14.00">ICES_extract.py</text>
</g>
<!-- CSV -->
<g id="node5" class="node">
<title>CSV</title>
<path fill="none" stroke="black" d="M744.38,-56.73C744.38,-58.53 675.8,-60 591.38,-60 506.96,-60 438.38,-58.53 438.38,-56.73 438.38,-56.73 438.38,-27.27 438.38,-27.27 438.38,-25.47 506.96,-24 591.38,-24 675.8,-24 744.38,-25.47 744.38,-27.27 744.38,-27.27 744.38,-56.73 744.38,-56.73"/>
<path fill="none" stroke="black" d="M744.38,-56.73C744.38,-54.92 675.8,-53.45 591.38,-53.45 506.96,-53.45 438.38,-54.92 438.38,-56.73"/>
<text text-anchor="middle" x="591.38" y="-38.3" font-family="Times,serif" font-size="14.00">VALID_&lt;VAR&gt;_&lt;YEAR&gt;_&lt;MODEL&gt;.csv</text>
</g>
<!-- EXTRACT&#45;&gt;CSV -->
<g id="edge5" class="edge">
<title>EXTRACT&#45;&gt;CSV</title>
<path fill="none" stroke="black" d="M373.85,-63.38C390.71,-61.72 409.16,-59.89 427.95,-58.04"/>
<polygon fill="black" stroke="black" points="428.51,-61.5 438.11,-57.04 427.82,-54.54 428.51,-61.5"/>
</g>
<!-- STRUCT&#45;&gt;EXTRACT -->
<g id="edge3" class="edge">
<title>STRUCT&#45;&gt;EXTRACT</title>
<path fill="none" stroke="black" d="M493.07,-107.83C469.89,-103.68 445.25,-99.23 422.38,-95 405.22,-91.83 386.75,-88.34 369.39,-85.03"/>
<polygon fill="black" stroke="black" points="369.8,-81.55 359.32,-83.11 368.48,-88.42 369.8,-81.55"/>
</g>
<!-- SIM -->
<g id="node6" class="node">
<title>SIM</title>
<path fill="none" stroke="black" d="M157,-70.73C157,-72.53 125.4,-74 86.5,-74 47.6,-74 16,-72.53 16,-70.73 16,-70.73 16,-41.27 16,-41.27 16,-39.47 47.6,-38 86.5,-38 125.4,-38 157,-39.47 157,-41.27 157,-41.27 157,-70.73 157,-70.73"/>
<path fill="none" stroke="black" d="M157,-70.73C157,-68.92 125.4,-67.45 86.5,-67.45 47.6,-67.45 16,-68.92 16,-70.73"/>
<text text-anchor="middle" x="86.5" y="-52.3" font-family="Times,serif" font-size="14.00">1 year simulation</text>
</g>
<!-- SIM&#45;&gt;EXTRACT -->
<g id="edge4" class="edge">
<title>SIM&#45;&gt;EXTRACT</title>
<path fill="none" stroke="black" d="M157.07,-61.04C172.11,-62.13 188.23,-63.29 203.95,-64.43"/>
<polygon fill="black" stroke="black" points="203.98,-67.94 214.21,-65.17 204.49,-60.96 203.98,-67.94"/>
</g>
</g>
</svg>
