<?xml version="1.0" encoding="UTF-8" standalone="no"?>
<!DOCTYPE svg PUBLIC "-//W3C//DTD SVG 1.1//EN"
 "http://www.w3.org/Graphics/SVG/1.1/DTD/svg11.dtd">
<!-- Generated by graphviz version 2.43.0 (0)
 -->
<!-- Title: Validation_diagram Pages: 1 -->
<svg width="868pt" height="221pt"
 viewBox="0.00 0.00 868.15 221.00" xmlns="http://www.w3.org/2000/svg" xmlns:xlink="http://www.w3.org/1999/xlink">
<g id="graph0" class="graph" transform="scale(1 1) rotate(0) translate(4 217)">
<title>Validation_diagram</title>
<polygon fill="white" stroke="transparent" points="-4,4 -4,-217 864.15,-217 864.15,4 -4,4"/>
<g id="clust1" class="cluster">
<title>cluster_ices</title>
<polygon fill="none" stroke="black" points="26,-113 26,-188 148,-188 148,-113 26,-113"/>
<text text-anchor="middle" x="87" y="-172.8" font-family="Times,serif" font-size="14.00">ICES database</text>
</g>
<g id="clust2" class="cluster">
<title>cluster_wp4</title>
<polygon fill="none" stroke="black" points="177,-37 177,-205 414.38,-205 414.38,-37 177,-37"/>
<text text-anchor="middle" x="295.69" y="-189.8" font-family="Times,serif" font-size="14.00">CodeBlue WP4 Github</text>
</g>
<g id="clust3" class="cluster">
<title>cluster_scripts</title>
<polygon fill="none" stroke="black" points="185,-45 185,-174 406.38,-174 406.38,-45 185,-45"/>
<text text-anchor="middle" x="295.69" y="-158.8" font-family="Times,serif" font-size="14.00">scr/validation/</text>
</g>
<g id="clust4" class="cluster">
<title>cluster_shared</title>
<polygon fill="none" stroke="black" points="422.38,-8 422.38,-205 852.15,-205 852.15,-8 422.38,-8"/>
<text text-anchor="middle" x="637.26" y="-189.8" font-family="Times,serif" font-size="14.00">Code Blue shared space</text>
</g>
<g id="clust5" class="cluster">
<title>cluster_icesfolder</title>
<polygon fill="none" stroke="black" points="470.68,-99 470.68,-174 803.85,-174 803.85,-99 470.68,-99"/>
<text text-anchor="middle" x="637.26" y="-158.8" font-family="Times,serif" font-size="14.00">Formatted ICES In&#45;situ data</text>
</g>
<g id="clust6" class="cluster">
<title>cluster_CBF</title>
<polygon fill="none" stroke="black" points="430.38,-16 430.38,-91 844.15,-91 844.15,-16 430.38,-16"/>
<text text-anchor="middle" x="637.26" y="-75.8" font-family="Times,serif" font-size="14.00">Code Blue Files</text>
</g>
<g id="clust7" class="cluster">
<title>cluster_partner</title>
<polygon fill="none" stroke="black" points="8,-30 8,-105 165,-105 165,-30 8,-30"/>
<text text-anchor="middle" x="86.5" y="-89.8" font-family="Times,serif" font-size="14.00">Code Blue partner</text>
</g>
<!-- ICES -->
<g id="node1" class="node">
<title>ICES</title>
<path fill="none" stroke="black" d="M137,-153.73C137,-155.53 114.37,-157 86.5,-157 58.63,-157 36,-155.53 36,-153.73 36,-153.73 36,-124.27 36,-124.27 36,-122.47 58.63,-121 86.5,-121 114.37,-121 137,-122.47 137,-124.27 137,-124.27 137,-153.73 137,-153.73"/>
<path fill="none" stroke="black" d="M137,-153.73C137,-151.92 114.37,-150.45 86.5,-150.45 58.63,-150.45 36,-151.92 36,-153.73"/>
<text text-anchor="middle" x="86.5" y="-135.3" font-family="Times,serif" font-size="14.00">ICES InSitu</text>
</g>
<!-- PARQUET -->
<g id="node2" class="node">
<title>PARQUET</title>
<ellipse fill="none" stroke="black" cx="295.69" cy="-125" rx="102.88" ry="18"/>
<text text-anchor="middle" x="295.69" y="-121.3" font-family="Times,serif" font-size="14.00">ICES_to_parquet.py</text>
</g>
<!-- ICES&#45;&gt;PARQUET -->
<g id="edge1" class="edge">
<title>ICES&#45;&gt;PARQUET</title>
<path fill="none" stroke="black" d="M137.13,-135.65C152.99,-134.58 171.19,-133.35 189.45,-132.11"/>
<polygon fill="black" stroke="black" points="189.85,-135.59 199.6,-131.43 189.38,-128.61 189.85,-135.59"/>
</g>
<!-- STRUCT -->
<g id="node4" class="node">
<title>STRUCT</title>
<ellipse fill="none" stroke="black" cx="637.26" cy="-125" rx="158.67" ry="18"/>
<text text-anchor="middle" x="637.26" y="-121.3" font-family="Times,serif" font-size="14.00">ICES_&lt;VAR&gt;_&lt;YEAR&gt;.parquet</text>
</g>
<!-- PARQUET&#45;&gt;STRUCT -->
<g id="edge2" class="edge">
<title>PARQUET&#45;&gt;STRUCT</title>
<path fill="none" stroke="black" d="M398.57,-125C420.63,-125 444.51,-125 468.34,-125"/>
<polygon fill="black" stroke="black" points="468.54,-128.5 478.54,-125 468.54,-121.5 468.54,-128.5"/>
</g>
<!-- EXTRACT -->
<g id="node3" class="node">
<title>EXTRACT</title>
<ellipse fill="none" stroke="black" cx="295.69" cy="-71" rx="85.59" ry="18"/>
<text text-anchor="middle" x="295.69" y="-67.3" font-family="Times,serif" font-size="14.00">ICES_extract.py</text>
</g>
<!-- CSV -->
<g id="node5" class="node">
<title>CSV</title>
<ellipse fill="none" stroke="black" cx="637.26" cy="-42" rx="198.76" ry="18"/>
<text text-anchor="middle" x="637.26" y="-38.3" font-family="Times,serif" font-size="14.00">VALID_&lt;VAR&gt;_&lt;YEAR&gt;_&lt;MODEL&gt;.csv</text>
</g>
<!-- EXTRACT&#45;&gt;CSV -->
<g id="edge5" class="edge">
<title>EXTRACT&#45;&gt;CSV</title>
<path fill="none" stroke="black" d="M375.45,-64.27C407.15,-61.57 444.86,-58.35 481.61,-55.21"/>
<polygon fill="black" stroke="black" points="482.28,-58.66 491.95,-54.32 481.69,-51.69 482.28,-58.66"/>
</g>
<!-- STRUCT&#45;&gt;EXTRACT -->
<g id="edge3" class="edge">
<title>STRUCT&#45;&gt;EXTRACT</title>
<path fill="none" stroke="black" d="M532.22,-111.45C497.26,-106.62 458.08,-100.91 422.38,-95 404.88,-92.1 386.08,-88.68 368.48,-85.34"/>
<polygon fill="black" stroke="black" points="368.75,-81.83 358.28,-83.39 367.44,-88.7 368.75,-81.83"/>
</g>
<!-- SIM -->
<g id="node6" class="node">
<title>SIM</title>
<path fill="none" stroke="black" d="M157,-70.73C157,-72.53 125.4,-74 86.5,-74 47.6,-74 16,-72.53 16,-70.73 16,-70.73 16,-41.27 16,-41.27 16,-39.47 47.6,-38 86.5,-38 125.4,-38 157,-39.47 157,-41.27 157,-41.27 157,-70.73 157,-70.73"/>
<path fill="none" stroke="black" d="M157,-70.73C157,-68.92 125.4,-67.45 86.5,-67.45 47.6,-67.45 16,-68.92 16,-70.73"/>
<text text-anchor="middle" x="86.5" y="-52.3" font-family="Times,serif" font-size="14.00">1 year simulation</text>
</g>
<!-- SIM&#45;&gt;EXTRACT -->
<g id="edge4" class="edge">
<title>SIM&#45;&gt;EXTRACT</title>
<path fill="none" stroke="black" d="M157.07,-61.04C172.11,-62.13 188.23,-63.29 203.95,-64.43"/>
<polygon fill="black" stroke="black" points="203.98,-67.94 214.21,-65.17 204.49,-60.96 203.98,-67.94"/>
</g>
</g>
</svg>
